HIERARCHY
ROOT hip
{
	OFFSET 0.000000 0.000000 0.000000
	CHANNELS 6 Xposition Yposition Zposition Zrotation Yrotation Xrotation 
	JOINT lhipjoint
	{
		OFFSET 0.000000 0.000000 0.000000
		CHANNELS 3 Zrotation Yrotation Xrotation
		JOINT lfemur
		{
			OFFSET 1.363060 -1.794630 0.839290
			CHANNELS 3 Zrotation Yrotation Xrotation
			JOINT ltibia
			{
				OFFSET 2.448110 -6.726130 0.000000
				CHANNELS 3 Zrotation Yrotation Xrotation
				JOINT lfoot
				{
					OFFSET 2.562200 -7.039590 0.000000
					CHANNELS 3 Zrotation Yrotation Xrotation
					JOINT ltoes
					{
						OFFSET 0.157640 -0.433110 2.322550
						CHANNELS 3 Zrotation Yrotation Xrotation
						End Site
						{
							OFFSET 0.000000 0.000000 0.000000
						}
					}
				}
			}
		}
	}
	JOINT rhipjoint
	{
		OFFSET 0.000000 0.000000 0.000000
		CHANNELS 3 Zrotation Yrotation Xrotation
		JOINT rfemur
		{
			OFFSET -1.305520 -1.794630 0.839290
			CHANNELS 3 Zrotation Yrotation Xrotation
			JOINT rtibia
			{
				OFFSET -2.542530 -6.985550 0.000000
				CHANNELS 3 Zrotation Yrotation Xrotation
				JOINT rfoot
				{
					OFFSET -2.568260 -7.056230 0.000000
					CHANNELS 3 Zrotation Yrotation Xrotation
					JOINT rtoes
					{
						OFFSET -0.164730 -0.452590 2.363150
						CHANNELS 3 Zrotation Yrotation Xrotation
						End Site
						{
							OFFSET 0.000000 0.000000 0.000000
						}
					}
				}
			}
		}
	}
	JOINT lowerback
	{
		OFFSET 0.000000 0.000000 0.000000
		CHANNELS 3 Zrotation Yrotation Xrotation
		JOINT upperback
		{
			OFFSET 0.028270 2.035590 -0.193380
			CHANNELS 3 Zrotation Yrotation Xrotation
			JOINT thorax
			{
				OFFSET 0.056720 2.048850 -0.042750
				CHANNELS 3 Zrotation Yrotation Xrotation
				JOINT lowerneck
				{
					OFFSET 0.000000 0.000000 0.000000
					CHANNELS 3 Zrotation Yrotation Xrotation
					JOINT upperneck
					{
						OFFSET -0.054170 1.746240 0.172020
						CHANNELS 3 Zrotation Yrotation Xrotation
						JOINT head
						{
							OFFSET 0.104070 1.761360 -0.123970
							CHANNELS 3 Zrotation Yrotation Xrotation
							End Site
							{
								OFFSET 0.000000 0.000000 0.000000
							}
						}
					}
				}
				JOINT lclavicle
				{
					OFFSET 0.000000 0.000000 0.000000
					CHANNELS 3 Zrotation Yrotation Xrotation
					JOINT lhumerus
					{
						OFFSET 3.362410 1.200890 -0.311210
						CHANNELS 3 Zrotation Yrotation Xrotation
						JOINT lradius
						{
							OFFSET 4.983000 -0.000000 -0.000000
							CHANNELS 3 Zrotation Yrotation Xrotation
							JOINT lwrist
							{
								OFFSET 3.483560 -0.000000 -0.000000
								CHANNELS 3 Zrotation Yrotation Xrotation
								JOINT lhand
								{
									OFFSET 0.000000 0.000000 0.000000
									CHANNELS 3 Zrotation Yrotation Xrotation
									JOINT lfingers
									{
										OFFSET 0.715260 -0.000000 -0.000000
										CHANNELS 3 Zrotation Yrotation Xrotation
										End Site
										{
											OFFSET 0.000000 0.000000 0.000000
										}
									}
								}
								JOINT lthumb
								{
									OFFSET 0.000000 0.000000 0.000000
									CHANNELS 3 Zrotation Yrotation Xrotation
									End Site
									{
										OFFSET 0.000000 0.000000 0.000000
									}
								}
							}
						}
					}
				}
				JOINT rclavicle
				{
					OFFSET 0.000000 0.000000 0.000000
					CHANNELS 3 Zrotation Yrotation Xrotation
					JOINT rhumerus
					{
						OFFSET -3.136600 1.374050 -0.404650
						CHANNELS 3 Zrotation Yrotation Xrotation
						JOINT rradius
						{
							OFFSET -5.241900 -0.000000 -0.000000
							CHANNELS 3 Zrotation Yrotation Xrotation
							JOINT rwrist
							{
								OFFSET -3.444170 -0.000000 -0.000000
								CHANNELS 3 Zrotation Yrotation Xrotation
								JOINT rhand
								{
									OFFSET 0.000000 0.000000 0.000000
									CHANNELS 3 Zrotation Yrotation Xrotation
									JOINT rfingers
									{
										OFFSET -0.622530 -0.000000 -0.000000
										CHANNELS 3 Zrotation Yrotation Xrotation
										End Site
										{
											OFFSET 0.000000 0.000000 0.000000
										}
									}
								}
								JOINT rthumb
								{
									OFFSET 0.000000 0.000000 0.000000
									CHANNELS 3 Zrotation Yrotation Xrotation
									End Site
									{
										OFFSET 0.000000 0.000000 0.000000
									}
								}
							}
						}
					}
				}
			}
		}
	}
}
MOTION
Frames: 10
Frame Time: 0.008333
1.976649 17.289606 13.857537 -2.190793 4.566074 -15.020048 8.684769 1.483619 -1.764770 -22.407435 -2.923531 5.720381 5.368666 13.259363 43.683291 4.612948 -10.945603 8.255765 0.205600 -2.919600 -8.055000 -13.275737 -2.777041 -4.084845 36.345601 7.794397 8.094778 -3.503753 -8.382701 27.456195 2.089383 -9.705572 -0.544830 -0.508000 4.568700 -12.682400 4.520565 -1.054606 15.595704 0.439187 -1.281370 -2.346807 -4.511038 0.259229 -1.338681 -1.956115 1.136652 -3.250234 2.395993 2.447011 19.215271 0.194100 1.236200 6.648800 0.368539 -4.641018 2.725063 -78.774091 0.872238 13.171140 13.693736 -38.500860 -5.562090 -0.041827 2.497653 12.744531 10.961750 -3.512187 -1.218600 -7.125000 0.000000 0.000000 -11.188200 23.907400 5.801100 -3.606969 7.173798 4.048817 83.397055 -6.799597 20.027523 -1.656959 27.668843 -1.888296 -1.834645 -2.090045 28.414203 -15.398124 11.444439 -3.736000 7.125000 0.000000 0.000000 8.624500 -15.322100 6.109600 
1.957344 17.293089 13.910476 -2.254887 4.737536 -14.984634 8.676629 1.481208 -1.739040 -22.143931 -3.017608 5.327087 5.461708 13.349849 44.042640 4.562770 -10.740535 8.469356 0.201800 -2.892600 -7.979900 -13.280341 -2.761336 -4.122830 36.582685 7.771610 8.475164 -3.467600 -8.305272 27.248285 2.184712 -9.966971 -0.938622 -0.505800 4.558900 -12.654700 4.698663 -1.096108 15.590588 0.440510 -1.310650 -2.348652 -4.586414 0.241694 -1.358179 -1.825404 1.119910 -3.211280 2.347030 2.425505 19.266096 0.123300 1.242900 6.674000 0.408006 -4.645227 2.723539 -79.050507 1.054457 12.889113 13.344884 -38.251026 -5.460887 -0.020195 2.498348 12.850928 11.197712 -3.603377 -1.262600 -7.125000 0.000000 0.000000 -11.019900 23.805200 5.737100 -3.564978 7.191118 4.062680 83.174195 -6.855647 20.862281 -1.877454 27.860868 -1.888227 -1.808852 -2.132823 27.986685 -15.275279 11.279791 -3.672500 7.125000 0.000000 0.000000 8.692200 -15.479600 6.128900 
1.939134 17.297367 13.962818 -2.332951 4.909497 -14.972204 8.668451 1.479029 -1.716152 -21.903465 -3.094716 4.968049 5.543154 13.415208 44.301508 4.479268 -10.385884 8.450065 0.204000 -2.908200 -8.023200 -13.286604 -2.743739 -4.166979 36.841402 7.737680 8.910845 -3.422395 -8.208431 26.985710 2.285142 -10.242192 -1.333691 -0.506500 4.562200 -12.663800 4.892077 -1.137963 15.611131 0.443587 -1.335593 -2.348842 -4.641254 0.225552 -1.381554 -1.726307 1.109109 -3.153040 2.303820 2.413625 19.306878 0.066800 1.251100 6.681800 0.448665 -4.649491 2.724851 -79.322973 1.220520 12.651738 12.927336 -37.956717 -5.338320 0.008717 2.494003 12.932813 11.466678 -3.760235 -1.323500 -7.125000 0.000000 0.000000 -10.830300 23.638700 5.677200 -3.527199 7.203559 4.079444 82.935959 -6.898970 21.578219 -2.048844 27.991552 -1.883247 -1.784856 -2.161425 27.652540 -15.150121 11.145332 -3.612800 7.125000 0.000000 0.000000 8.764600 -15.617300 6.154900 
1.921023 17.304433 14.015060 -2.419457 5.094658 -14.943331 8.663914 1.478434 -1.694654 -21.694015 -3.175751 4.606053 5.605380 13.450850 44.433176 4.377558 -9.951752 8.145632 0.223000 -3.039800 -8.389700 -13.295203 -2.725552 -4.208195 37.114613 7.719646 9.363928 -3.372311 -8.099591 26.686751 2.398500 -10.557122 -1.745339 -0.496200 4.516200 -12.533500 5.092505 -1.184540 15.625128 0.446389 -1.365658 -2.352271 -4.707786 0.205653 -1.426431 -1.607962 1.090097 -3.078947 2.248814 2.390982 19.347184 -0.004100 1.256900 6.689200 0.489328 -4.663824 2.724473 -79.595823 1.425003 12.397246 12.487623 -37.639764 -5.211610 0.041604 2.485996 13.030453 11.767039 -3.951227 -1.395800 -7.125000 0.000000 0.000000 -10.619300 23.439000 5.612500 -3.480985 7.230055 4.098970 82.685042 -6.997938 22.453860 -2.301001 28.188151 -1.889068 -1.759150 -2.209277 27.056837 -15.058734 10.988188 -3.559800 7.125000 0.000000 0.000000 8.815700 -15.759900 6.164200 
1.904107 17.314782 14.065611 -2.528678 5.282102 -14.817120 8.668538 1.480397 -1.673215 -21.539309 -3.356622 4.187293 5.639918 13.453875 44.408231 4.239838 -9.374208 7.579776 0.258900 -3.273800 -9.041900 -13.315546 -2.714447 -4.227929 37.406286 7.755348 9.683411 -3.321131 -7.996548 26.381855 2.509645 -10.873312 -2.130787 -0.496100 4.515900 -12.532800 5.315930 -1.228073 15.533226 0.450506 -1.394569 -2.358882 -4.775442 0.185049 -1.456934 -1.495685 1.077637 -3.003809 2.202575 2.377273 19.383105 -0.066500 1.266400 6.686900 0.544259 -4.672123 2.725567 -79.907428 1.587302 12.006588 11.953873 -37.239695 -5.061000 0.081612 2.468253 13.224372 12.059209 -4.227141 -1.485300 -7.125000 0.000000 0.000000 -10.414300 23.162200 5.568000 -3.453569 7.247756 4.114319 82.480861 -7.057378 23.027451 -2.425392 28.288998 -1.887908 -1.743405 -2.230806 26.732270 -14.988931 10.905507 -3.525300 7.125000 0.000000 0.000000 8.857800 -15.841200 6.178700 
1.887986 17.322643 14.115266 -2.629687 5.467390 -14.721997 8.672225 1.480594 -1.656297 -21.425079 -3.521428 3.867911 5.628560 13.406491 44.190546 4.077814 -8.723824 6.962372 0.288800 -3.456000 -9.550900 -13.332448 -2.700916 -4.249542 37.685356 7.793924 10.023385 -3.275028 -7.901320 26.110478 2.611133 -11.159658 -2.530975 -0.484500 4.463500 -12.384300 5.536612 -1.275328 15.481931 0.453466 -1.427856 -2.363746 -4.845995 0.164231 -1.485663 -1.399797 1.072911 -2.942358 2.171340 2.372098 19.421328 -0.110000 1.276300 6.691800 0.595412 -4.682454 2.725541 -80.237051 1.738069 11.507686 11.404226 -36.807200 -4.908306 0.120505 2.444358 13.545193 12.307668 -4.500292 -1.570100 -7.125000 0.000000 0.000000 -10.239600 22.895900 5.535200 -3.429928 7.264048 4.129043 82.274464 -7.116803 23.645189 -2.575186 28.413290 -1.891969 -1.727044 -2.262679 26.302787 -14.948722 10.792384 -3.493100 7.125000 0.000000 0.000000 8.879800 -15.942100 6.174800 
1.873259 17.327021 14.163826 -2.734566 5.621232 -14.634182 8.672825 1.480539 -1.642926 -21.337068 -3.654112 3.630822 5.572194 13.310545 43.789446 3.872965 -7.943003 6.397002 0.307800 -3.566600 -9.860500 -13.349754 -2.687512 -4.266218 37.970302 7.840813 10.334127 -3.236053 -7.824320 25.894284 2.704488 -11.424740 -2.912165 -0.476900 4.428700 -12.286000 5.755950 -1.310758 15.447908 0.457585 -1.442819 -2.367630 -4.895684 0.151104 -1.518406 -1.321850 1.065270 -2.872097 2.133033 2.365561 19.448819 -0.154100 1.284200 6.686700 0.664491 -4.691985 2.727679 -80.610413 1.883193 10.917927 10.800168 -36.330241 -4.743703 0.160871 2.415372 13.943600 12.517571 -4.795765 -1.655900 -7.125000 0.000000 0.000000 -10.093100 22.612600 5.520100 -3.426678 7.276969 4.140680 82.119259 -7.107297 23.795827 -2.520175 28.368176 -1.883933 -1.729552 -2.248099 26.324891 -14.946949 10.825300 -3.496000 7.125000 0.000000 0.000000 8.886400 -15.920900 6.183600 
1.859526 17.329807 14.209899 -2.786769 5.771972 -14.556038 8.674107 1.478751 -1.629744 -21.339219 -3.786114 3.465380 5.473402 13.172185 43.223857 3.635104 -7.078945 5.902451 0.318100 -3.625600 -10.025700 -13.366904 -2.668843 -4.277574 38.212538 7.947119 10.632939 -3.207591 -7.759055 25.724369 2.795762 -11.687181 -3.334851 -0.470100 4.397600 -12.198100 5.910896 -1.335691 15.457428 0.460764 -1.447744 -2.374626 -4.903587 0.141448 -1.590031 -1.279781 1.056891 -2.778667 2.095970 2.358757 19.470978 -0.191200 1.288700 6.680100 0.751804 -4.716574 2.727068 -81.050526 2.001864 10.142727 10.093466 -35.754891 -4.554175 0.203941 2.377709 14.608600 12.672637 -5.094138 -1.735100 -7.125000 0.000000 0.000000 -9.983700 22.337300 5.522200 -3.440187 7.302047 4.150205 82.000325 -7.098279 23.673305 -2.384603 28.240203 -1.872284 -1.741128 -2.213443 26.562962 -14.962814 10.923412 -3.515000 7.125000 0.000000 0.000000 8.885500 -15.844400 6.197900 
1.847884 17.332693 14.254180 -2.857765 5.881593 -14.442889 8.675883 1.477981 -1.622378 -21.337394 -3.885755 3.319232 5.348932 13.003062 42.543088 3.383491 -6.200931 5.369859 0.340700 -3.750800 -10.376600 -13.387506 -2.653396 -4.279171 38.470587 8.072390 10.873667 -3.181143 -7.705280 25.580185 2.873239 -11.911993 -3.715002 -0.465500 4.376200 -12.137400 6.095314 -1.352701 15.441524 0.464430 -1.440141 -2.379474 -4.908996 0.139201 -1.631848 -1.254577 1.059137 -2.715913 2.063718 2.366853 19.487518 -0.216900 1.297400 6.674500 0.854448 -4.728076 2.727198 -81.538530 2.036512 9.158503 9.292049 -35.073262 -4.342984 0.246266 2.327483 15.545040 12.752083 -5.381909 -1.800100 -7.125000 0.000000 0.000000 -9.925800 22.089200 5.546300 -3.470759 7.309240 4.155321 81.911423 -7.016655 23.243885 -2.120866 28.013336 -1.854051 -1.762125 -2.153579 27.070214 -15.001738 11.088092 -3.550800 7.125000 0.000000 0.000000 8.873900 -15.714200 6.214800 
1.837037 17.337470 14.296770 -2.921756 5.965332 -14.371646 8.677225 1.475837 -1.615940 -21.358627 -3.977931 3.227189 5.204077 12.807298 41.774614 3.118442 -5.312544 4.864231 0.356900 -3.838300 -10.622200 -13.405363 -2.634607 -4.281193 38.728724 8.210346 11.146136 -3.157356 -7.653761 25.451529 2.950500 -12.136782 -4.101772 -0.454900 4.326800 -11.997900 6.277016 -1.358777 15.490676 0.465147 -1.414325 -2.385583 -4.944643 0.146553 -1.711131 -1.197400 1.054843 -2.636405 2.038329 2.361246 19.495459 -0.246600 1.302300 6.669000 0.962034 -4.752729 2.727176 -82.019194 2.084555 8.074232 8.461316 -34.330289 -4.127631 0.282784 2.271570 16.607418 12.784654 -5.580605 -1.837500 -7.125000 0.000000 0.000000 -9.901700 21.939900 5.566600 -3.514195 7.334745 4.155958 81.895036 -6.940833 22.540582 -1.781070 27.738188 -1.833097 -1.789973 -2.077432 27.841916 -15.038723 11.300838 -3.595700 7.125000 0.000000 0.000000 8.865500 -15.543300 6.241900 
